<svg xmlns="http://www.w3.org/2000/svg" viewBox="0 0 512 512" role="img" aria-labelledby="money-diary-logo-title">
  <title id="money-diary-logo-title">Money Diary</title>
  <rect x="8" y="8" width="496" height="496" rx="132" fill="#183C2E"/>
  <path d="M86 146c0-15 12-27 27-28 58-4 105 9 143 39v249c-39-27-87-39-145-34-14 1-25-10-25-24V146Z" fill="#F7F7F2"/>
  <path d="M426 146c0-15-12-27-27-28-58-4-105 9-143 39v249c39-27 87-39 145-34 14 1 25-10 25-24V146Z" fill="#E4EFE8"/>
  <path d="M256 157v249" stroke="#A9C8B5" stroke-width="12" stroke-linecap="round"/>
  <path d="m132 324 72-68 59 42 93-102" fill="none" stroke="#C99A42" stroke-width="28" stroke-linecap="round" stroke-linejoin="round"/>
  <path d="m337 190 38-15-9 40" fill="none" stroke="#C99A42" stroke-width="24" stroke-linecap="round" stroke-linejoin="round"/>
  <circle cx="132" cy="324" r="15" fill="#C99A42"/>
</svg>
